# xmcd CD database file
#
# Track frame offsets:
#	150
#	2682
#	27044
#	41857
#	70323
#	89894
#	108394
#	123452
#	144986
#	187768
#	216603
#	237627
#	263006
#
# Disc length: 3543 seconds
#
# Revision: 2
# Processed by: cddbd v1.5.2PL0 Copyright (c) Steve Scherf et al.
# Submitted via: CDex 1.70beta2
#
DISCID=be0dd50d
DTITLE=Sheila Jordan, 1928- - Jazz Child
DYEAR=1998
DGENRE=Jazz Vocals
TTITLE0=Sheila Jordan - Jazz Child
TTITLE1=Jimmy Webb - The Moon is a Harsh Mistress
TTITLE2=Chris Lee - Reel Time
TTITLE3=Don Cherry and Sheila Jordan - Art Deco
TTITLE4=Steve Kuhn - The Zoo
TTITLE5=Ira Gershwin and Kurt Weill - My Ship
TTITLE6=Gil Fuller and Ernie Henry - Oh Henry
TTITLE7=Abbey Lincoln - Bird Alone
TTITLE8=Lorenz Hart, Sheila Jordan and Richard Rodgers - Ballad for Miles, My Funny Valentine (medley)
TTITLE9=Tom Harrell, Sheila Jordan and Cheryl Pyle - Buffalo Wings
TTITLE10=Tom Adair and Matt Dennis - Everything Happens to Me
TTITLE11=Sam M. Lewis and Cole Porter - Everytime We Say Goodbye, For All We Know (medley)
TTITLE12=Sheila Jordan - Jazz Child - Reprise
EXTD=YEAR: 1998
EXTT0=
EXTT1=
EXTT2=
EXTT3=
EXTT4=
EXTT5=
EXTT6=
EXTT7=
EXTT8=
EXTT9=
EXTT10=
EXTT11=
EXTT12=
PLAYORDER=
